<?xml version="1.0" encoding="UTF-8"?>
<svg xmlns="http://www.w3.org/2000/svg" xmlns:xlink="http://www.w3.org/1999/xlink" width="841.92004pt" height="595.32001pt" viewBox="0 0 841.92004 595.32001" version="1.1">
<defs>
<clipPath id="clip1">
  <path d="M 83.640625 447.839844 L 729.480469 447.839844 L 729.480469 449.640625 L 83.640625 449.640625 Z M 83.640625 447.839844 "/>
</clipPath>
</defs>
<g id="surface1">
<path style=" stroke:none;fill-rule:nonzero;fill:rgb(0%,0%,0%);fill-opacity:1;" d="M 240.960938 128.519531 C 240.960938 124.558594 237.71875 121.320313 233.761719 121.320313 C 229.800781 121.320313 226.558594 124.558594 226.558594 128.519531 C 226.558594 132.601563 229.800781 135.839844 233.761719 135.839844 C 237.71875 135.839844 240.960938 132.601563 240.960938 128.519531 Z M 240.960938 128.519531 "/>
<path style=" stroke:none;fill-rule:evenodd;fill:rgb(0%,0%,0%);fill-opacity:1;" d="M 501.960938 448.679688 L 489.601563 422.160156 L 483.839844 426.960938 L 477.960938 431.878906 Z M 501.960938 448.679688 "/>
<path style="fill:none;stroke-width:1.92;stroke-linecap:round;stroke-linejoin:round;stroke:rgb(0%,0%,0%);stroke-opacity:1;stroke-miterlimit:10;" d="M 645.119792 569.281246 L 311.682292 171.359371 " transform="matrix(0.75,0,0,0.75,0,0.000003)"/>
<path style="fill:none;stroke-width:1.92;stroke-linecap:round;stroke-linejoin:round;stroke:rgb(0%,0%,0%);stroke-opacity:1;stroke-miterlimit:10;" d="M 947.838542 606.718746 L 971.359375 598.239579 L 947.838542 589.598954 L 971.359375 598.239579 L 947.838542 606.718746 " transform="matrix(0.75,0,0,0.75,0,0.000003)"/>
<g clip-path="url(#clip1)" clip-rule="nonzero">
<path style="fill:none;stroke-width:1.92;stroke-linecap:round;stroke-linejoin:round;stroke:rgb(0%,0%,0%);stroke-opacity:1;stroke-miterlimit:10;" d="M 971.359375 598.239579 L 96 598.239579 " transform="matrix(0.75,0,0,0.75,0,0.000003)"/>
</g>
<path style="fill:none;stroke-width:1.92;stroke-linecap:round;stroke-linejoin:round;stroke:rgb(0%,0%,0%);stroke-opacity:1;stroke-miterlimit:10;" d="M 320.317708 194.880204 L 311.682292 171.359371 L 303.197917 194.880204 L 311.682292 171.359371 L 320.317708 194.880204 " transform="matrix(0.75,0,0,0.75,0,0.000003)"/>
<path style="fill:none;stroke-width:1.92;stroke-linecap:round;stroke-linejoin:round;stroke:rgb(0%,0%,0%);stroke-opacity:1;stroke-miterlimit:10;" d="M 311.682292 171.359371 L 311.682292 224.802079 " transform="matrix(0.75,0,0,0.75,0,0.000003)"/>
<path style="fill:none;stroke-width:1.92;stroke-linecap:round;stroke-linejoin:round;stroke:rgb(0%,0%,0%);stroke-opacity:1;stroke-miterlimit:10;" d="M 303.197917 574.562496 L 311.682292 598.239579 L 320.317708 574.562496 L 311.682292 598.239579 L 303.197917 574.562496 " transform="matrix(0.75,0,0,0.75,0,0.000003)"/>
<path style="fill:none;stroke-width:1.92;stroke-linecap:round;stroke-linejoin:round;stroke:rgb(0%,0%,0%);stroke-opacity:1;stroke-miterlimit:10;" d="M 311.682292 598.239579 L 311.682292 544.802079 " transform="matrix(0.75,0,0,0.75,0,0.000003)"/>
<path style="fill:none;stroke-width:1.92;stroke-linecap:round;stroke-linejoin:round;stroke:rgb(0%,0%,0%);stroke-opacity:1;stroke-miterlimit:10;" d="M 311.682292 171.359371 L 311.682292 172.640621 " transform="matrix(0.75,0,0,0.75,0,0.000003)"/>
<path style="fill:none;stroke-width:1.92;stroke-linecap:round;stroke-linejoin:round;stroke:rgb(0%,0%,0%);stroke-opacity:1;stroke-miterlimit:10;" d="M 311.682292 179.197913 L 311.682292 180.317704 " transform="matrix(0.75,0,0,0.75,0,0.000003)"/>
<path style="fill:none;stroke-width:1.92;stroke-linecap:round;stroke-linejoin:round;stroke:rgb(0%,0%,0%);stroke-opacity:1;stroke-miterlimit:10;" d="M 311.682292 187.041663 L 311.682292 188.161454 " transform="matrix(0.75,0,0,0.75,0,0.000003)"/>
<path style="fill:none;stroke-width:1.92;stroke-linecap:round;stroke-linejoin:round;stroke:rgb(0%,0%,0%);stroke-opacity:1;stroke-miterlimit:10;" d="M 311.682292 194.718746 L 311.682292 195.999996 " transform="matrix(0.75,0,0,0.75,0,0.000003)"/>
<path style="fill:none;stroke-width:1.92;stroke-linecap:round;stroke-linejoin:round;stroke:rgb(0%,0%,0%);stroke-opacity:1;stroke-miterlimit:10;" d="M 311.682292 202.718746 L 311.682292 203.682288 " transform="matrix(0.75,0,0,0.75,0,0.000003)"/>
<path style="fill:none;stroke-width:1.92;stroke-linecap:round;stroke-linejoin:round;stroke:rgb(0%,0%,0%);stroke-opacity:1;stroke-miterlimit:10;" d="M 311.682292 210.401038 L 311.682292 211.520829 " transform="matrix(0.75,0,0,0.75,0,0.000003)"/>
<path style="fill:none;stroke-width:1.92;stroke-linecap:round;stroke-linejoin:round;stroke:rgb(0%,0%,0%);stroke-opacity:1;stroke-miterlimit:10;" d="M 311.682292 218.239579 L 311.682292 219.359371 " transform="matrix(0.75,0,0,0.75,0,0.000003)"/>
<path style="fill:none;stroke-width:1.92;stroke-linecap:round;stroke-linejoin:round;stroke:rgb(0%,0%,0%);stroke-opacity:1;stroke-miterlimit:10;" d="M 311.682292 226.078121 L 311.682292 227.197913 " transform="matrix(0.75,0,0,0.75,0,0.000003)"/>
<path style="fill:none;stroke-width:1.92;stroke-linecap:round;stroke-linejoin:round;stroke:rgb(0%,0%,0%);stroke-opacity:1;stroke-miterlimit:10;" d="M 311.682292 233.760413 L 311.682292 234.880204 " transform="matrix(0.75,0,0,0.75,0,0.000003)"/>
<path style="fill:none;stroke-width:1.92;stroke-linecap:round;stroke-linejoin:round;stroke:rgb(0%,0%,0%);stroke-opacity:1;stroke-miterlimit:10;" d="M 311.682292 241.598954 L 311.682292 242.718746 " transform="matrix(0.75,0,0,0.75,0,0.000003)"/>
<path style="fill:none;stroke-width:1.92;stroke-linecap:round;stroke-linejoin:round;stroke:rgb(0%,0%,0%);stroke-opacity:1;stroke-miterlimit:10;" d="M 311.682292 249.437496 L 311.682292 250.562496 " transform="matrix(0.75,0,0,0.75,0,0.000003)"/>
<path style="fill:none;stroke-width:1.92;stroke-linecap:round;stroke-linejoin:round;stroke:rgb(0%,0%,0%);stroke-opacity:1;stroke-miterlimit:10;" d="M 311.682292 257.281246 L 311.682292 258.401038 " transform="matrix(0.75,0,0,0.75,0,0.000003)"/>
<path style="fill:none;stroke-width:1.92;stroke-linecap:round;stroke-linejoin:round;stroke:rgb(0%,0%,0%);stroke-opacity:1;stroke-miterlimit:10;" d="M 311.682292 264.958329 L 311.682292 266.239579 " transform="matrix(0.75,0,0,0.75,0,0.000003)"/>
<path style="fill:none;stroke-width:1.92;stroke-linecap:round;stroke-linejoin:round;stroke:rgb(0%,0%,0%);stroke-opacity:1;stroke-miterlimit:10;" d="M 311.682292 272.802079 L 311.682292 273.921871 " transform="matrix(0.75,0,0,0.75,0,0.000003)"/>
<path style="fill:none;stroke-width:1.92;stroke-linecap:round;stroke-linejoin:round;stroke:rgb(0%,0%,0%);stroke-opacity:1;stroke-miterlimit:10;" d="M 311.682292 280.640621 L 311.682292 281.760413 " transform="matrix(0.75,0,0,0.75,0,0.000003)"/>
<path style="fill:none;stroke-width:1.92;stroke-linecap:round;stroke-linejoin:round;stroke:rgb(0%,0%,0%);stroke-opacity:1;stroke-miterlimit:10;" d="M 311.682292 288.479163 L 311.682292 289.598954 " transform="matrix(0.75,0,0,0.75,0,0.000003)"/>
<path style="fill:none;stroke-width:1.92;stroke-linecap:round;stroke-linejoin:round;stroke:rgb(0%,0%,0%);stroke-opacity:1;stroke-miterlimit:10;" d="M 311.682292 296.317704 L 311.682292 297.281246 " transform="matrix(0.75,0,0,0.75,0,0.000003)"/>
<path style="fill:none;stroke-width:1.92;stroke-linecap:round;stroke-linejoin:round;stroke:rgb(0%,0%,0%);stroke-opacity:1;stroke-miterlimit:10;" d="M 311.682292 303.999996 L 311.682292 305.119788 " transform="matrix(0.75,0,0,0.75,0,0.000003)"/>
<path style="fill:none;stroke-width:1.92;stroke-linecap:round;stroke-linejoin:round;stroke:rgb(0%,0%,0%);stroke-opacity:1;stroke-miterlimit:10;" d="M 311.682292 311.838538 L 311.682292 312.958329 " transform="matrix(0.75,0,0,0.75,0,0.000003)"/>
<path style="fill:none;stroke-width:1.92;stroke-linecap:round;stroke-linejoin:round;stroke:rgb(0%,0%,0%);stroke-opacity:1;stroke-miterlimit:10;" d="M 311.682292 319.682288 L 311.682292 320.802079 " transform="matrix(0.75,0,0,0.75,0,0.000003)"/>
<path style="fill:none;stroke-width:1.92;stroke-linecap:round;stroke-linejoin:round;stroke:rgb(0%,0%,0%);stroke-opacity:1;stroke-miterlimit:10;" d="M 311.682292 327.520829 L 311.682292 328.479163 " transform="matrix(0.75,0,0,0.75,0,0.000003)"/>
<path style="fill:none;stroke-width:1.92;stroke-linecap:round;stroke-linejoin:round;stroke:rgb(0%,0%,0%);stroke-opacity:1;stroke-miterlimit:10;" d="M 311.682292 335.197913 L 311.682292 336.317704 " transform="matrix(0.75,0,0,0.75,0,0.000003)"/>
<path style="fill:none;stroke-width:1.92;stroke-linecap:round;stroke-linejoin:round;stroke:rgb(0%,0%,0%);stroke-opacity:1;stroke-miterlimit:10;" d="M 311.682292 343.041663 L 311.682292 344.161454 " transform="matrix(0.75,0,0,0.75,0,0.000003)"/>
<path style="fill:none;stroke-width:1.92;stroke-linecap:round;stroke-linejoin:round;stroke:rgb(0%,0%,0%);stroke-opacity:1;stroke-miterlimit:10;" d="M 311.682292 350.880204 L 311.682292 351.999996 " transform="matrix(0.75,0,0,0.75,0,0.000003)"/>
<path style="fill:none;stroke-width:1.92;stroke-linecap:round;stroke-linejoin:round;stroke:rgb(0%,0%,0%);stroke-opacity:1;stroke-miterlimit:10;" d="M 311.682292 596.640621 L 311.682292 595.520829 " transform="matrix(0.75,0,0,0.75,0,0.000003)"/>
<path style="fill:none;stroke-width:1.92;stroke-linecap:round;stroke-linejoin:round;stroke:rgb(0%,0%,0%);stroke-opacity:1;stroke-miterlimit:10;" d="M 311.682292 588.802079 L 311.682292 587.682288 " transform="matrix(0.75,0,0,0.75,0,0.000003)"/>
<path style="fill:none;stroke-width:1.92;stroke-linecap:round;stroke-linejoin:round;stroke:rgb(0%,0%,0%);stroke-opacity:1;stroke-miterlimit:10;" d="M 311.682292 580.958329 L 311.682292 579.838538 " transform="matrix(0.75,0,0,0.75,0,0.000003)"/>
<path style="fill:none;stroke-width:1.92;stroke-linecap:round;stroke-linejoin:round;stroke:rgb(0%,0%,0%);stroke-opacity:1;stroke-miterlimit:10;" d="M 311.682292 573.119788 L 311.682292 572.161454 " transform="matrix(0.75,0,0,0.75,0,0.000003)"/>
<path style="fill:none;stroke-width:1.92;stroke-linecap:round;stroke-linejoin:round;stroke:rgb(0%,0%,0%);stroke-opacity:1;stroke-miterlimit:10;" d="M 311.682292 565.437496 L 311.682292 564.161454 " transform="matrix(0.75,0,0,0.75,0,0.000003)"/>
<path style="fill:none;stroke-width:1.92;stroke-linecap:round;stroke-linejoin:round;stroke:rgb(0%,0%,0%);stroke-opacity:1;stroke-miterlimit:10;" d="M 311.682292 557.598954 L 311.682292 556.479163 " transform="matrix(0.75,0,0,0.75,0,0.000003)"/>
<path style="fill:none;stroke-width:1.92;stroke-linecap:round;stroke-linejoin:round;stroke:rgb(0%,0%,0%);stroke-opacity:1;stroke-miterlimit:10;" d="M 311.682292 549.760413 L 311.682292 548.640621 " transform="matrix(0.75,0,0,0.75,0,0.000003)"/>
<path style="fill:none;stroke-width:1.92;stroke-linecap:round;stroke-linejoin:round;stroke:rgb(0%,0%,0%);stroke-opacity:1;stroke-miterlimit:10;" d="M 311.682292 541.921871 L 311.682292 540.802079 " transform="matrix(0.75,0,0,0.75,0,0.000003)"/>
<path style="fill:none;stroke-width:1.92;stroke-linecap:round;stroke-linejoin:round;stroke:rgb(0%,0%,0%);stroke-opacity:1;stroke-miterlimit:10;" d="M 311.682292 534.078121 L 311.682292 533.119788 " transform="matrix(0.75,0,0,0.75,0,0.000003)"/>
<path style="fill:none;stroke-width:1.92;stroke-linecap:round;stroke-linejoin:round;stroke:rgb(0%,0%,0%);stroke-opacity:1;stroke-miterlimit:10;" d="M 311.682292 526.401038 L 311.682292 525.281246 " transform="matrix(0.75,0,0,0.75,0,0.000003)"/>
<path style="fill:none;stroke-width:1.92;stroke-linecap:round;stroke-linejoin:round;stroke:rgb(0%,0%,0%);stroke-opacity:1;stroke-miterlimit:10;" d="M 311.682292 518.562496 L 311.682292 517.437496 " transform="matrix(0.75,0,0,0.75,0,0.000003)"/>
<path style="fill:none;stroke-width:1.92;stroke-linecap:round;stroke-linejoin:round;stroke:rgb(0%,0%,0%);stroke-opacity:1;stroke-miterlimit:10;" d="M 311.682292 510.718746 L 311.682292 509.598954 " transform="matrix(0.75,0,0,0.75,0,0.000003)"/>
<path style="fill:none;stroke-width:1.92;stroke-linecap:round;stroke-linejoin:round;stroke:rgb(0%,0%,0%);stroke-opacity:1;stroke-miterlimit:10;" d="M 311.682292 502.880204 L 311.682292 501.921871 " transform="matrix(0.75,0,0,0.75,0,0.000003)"/>
<path style="fill:none;stroke-width:1.92;stroke-linecap:round;stroke-linejoin:round;stroke:rgb(0%,0%,0%);stroke-opacity:1;stroke-miterlimit:10;" d="M 311.682292 495.197913 L 311.682292 494.078121 " transform="matrix(0.75,0,0,0.75,0,0.000003)"/>
<path style="fill:none;stroke-width:1.92;stroke-linecap:round;stroke-linejoin:round;stroke:rgb(0%,0%,0%);stroke-opacity:1;stroke-miterlimit:10;" d="M 311.682292 487.359371 L 311.682292 486.239579 " transform="matrix(0.75,0,0,0.75,0,0.000003)"/>
<path style="fill:none;stroke-width:1.92;stroke-linecap:round;stroke-linejoin:round;stroke:rgb(0%,0%,0%);stroke-opacity:1;stroke-miterlimit:10;" d="M 311.682292 479.520829 L 311.682292 478.401038 " transform="matrix(0.75,0,0,0.75,0,0.000003)"/>
<path style="fill:none;stroke-width:1.92;stroke-linecap:round;stroke-linejoin:round;stroke:rgb(0%,0%,0%);stroke-opacity:1;stroke-miterlimit:10;" d="M 311.682292 471.838538 L 311.682292 470.562496 " transform="matrix(0.75,0,0,0.75,0,0.000003)"/>
<path style="fill:none;stroke-width:1.92;stroke-linecap:round;stroke-linejoin:round;stroke:rgb(0%,0%,0%);stroke-opacity:1;stroke-miterlimit:10;" d="M 311.682292 463.999996 L 311.682292 462.880204 " transform="matrix(0.75,0,0,0.75,0,0.000003)"/>
<path style="fill:none;stroke-width:1.92;stroke-linecap:round;stroke-linejoin:round;stroke:rgb(0%,0%,0%);stroke-opacity:1;stroke-miterlimit:10;" d="M 311.682292 456.161454 L 311.682292 455.041663 " transform="matrix(0.75,0,0,0.75,0,0.000003)"/>
<path style="fill:none;stroke-width:1.92;stroke-linecap:round;stroke-linejoin:round;stroke:rgb(0%,0%,0%);stroke-opacity:1;stroke-miterlimit:10;" d="M 311.682292 448.317704 L 311.682292 447.197913 " transform="matrix(0.75,0,0,0.75,0,0.000003)"/>
<path style="fill:none;stroke-width:1.92;stroke-linecap:round;stroke-linejoin:round;stroke:rgb(0%,0%,0%);stroke-opacity:1;stroke-miterlimit:10;" d="M 311.682292 440.479163 L 311.682292 439.359371 " transform="matrix(0.75,0,0,0.75,0,0.000003)"/>
<path style="fill:none;stroke-width:1.92;stroke-linecap:round;stroke-linejoin:round;stroke:rgb(0%,0%,0%);stroke-opacity:1;stroke-miterlimit:10;" d="M 311.682292 432.802079 L 311.682292 431.682288 " transform="matrix(0.75,0,0,0.75,0,0.000003)"/>
<path style="fill:none;stroke-width:1.92;stroke-linecap:round;stroke-linejoin:round;stroke:rgb(0%,0%,0%);stroke-opacity:1;stroke-miterlimit:10;" d="M 311.682292 424.958329 L 311.682292 423.838538 " transform="matrix(0.75,0,0,0.75,0,0.000003)"/>
<path style="fill:none;stroke-width:1.92;stroke-linecap:round;stroke-linejoin:round;stroke:rgb(0%,0%,0%);stroke-opacity:1;stroke-miterlimit:10;" d="M 311.682292 417.119788 L 311.682292 415.999996 " transform="matrix(0.75,0,0,0.75,0,0.000003)"/>
<path style="fill:none;stroke-width:1.92;stroke-linecap:round;stroke-linejoin:round;stroke:rgb(0%,0%,0%);stroke-opacity:1;stroke-miterlimit:10;" d="M 910.078125 598.562496 L 900.802083 607.999996 " transform="matrix(0.75,0,0,0.75,0,0.000003)"/>
<path style="fill:none;stroke-width:1.92;stroke-linecap:round;stroke-linejoin:round;stroke:rgb(0%,0%,0%);stroke-opacity:1;stroke-miterlimit:10;" d="M 886.880208 598.239579 L 876.958333 607.999996 " transform="matrix(0.75,0,0,0.75,0,0.000003)"/>
<path style="fill:none;stroke-width:1.92;stroke-linecap:round;stroke-linejoin:round;stroke:rgb(0%,0%,0%);stroke-opacity:1;stroke-miterlimit:10;" d="M 863.197917 598.239579 L 853.4375 607.999996 " transform="matrix(0.75,0,0,0.75,0,0.000003)"/>
<path style="fill:none;stroke-width:1.92;stroke-linecap:round;stroke-linejoin:round;stroke:rgb(0%,0%,0%);stroke-opacity:1;stroke-miterlimit:10;" d="M 839.520833 598.239579 L 829.760417 607.999996 " transform="matrix(0.75,0,0,0.75,0,0.000003)"/>
<path style="fill:none;stroke-width:1.92;stroke-linecap:round;stroke-linejoin:round;stroke:rgb(0%,0%,0%);stroke-opacity:1;stroke-miterlimit:10;" d="M 815.838542 598.239579 L 806.078125 607.999996 " transform="matrix(0.75,0,0,0.75,0,0.000003)"/>
<path style="fill:none;stroke-width:1.92;stroke-linecap:round;stroke-linejoin:round;stroke:rgb(0%,0%,0%);stroke-opacity:1;stroke-miterlimit:10;" d="M 792.317708 598.239579 L 782.401042 607.999996 " transform="matrix(0.75,0,0,0.75,0,0.000003)"/>
<path style="fill:none;stroke-width:1.92;stroke-linecap:round;stroke-linejoin:round;stroke:rgb(0%,0%,0%);stroke-opacity:1;stroke-miterlimit:10;" d="M 768.640625 598.239579 L 758.880208 607.999996 " transform="matrix(0.75,0,0,0.75,0,0.000003)"/>
<path style="fill:none;stroke-width:1.92;stroke-linecap:round;stroke-linejoin:round;stroke:rgb(0%,0%,0%);stroke-opacity:1;stroke-miterlimit:10;" d="M 744.958333 598.239579 L 735.197917 607.999996 " transform="matrix(0.75,0,0,0.75,0,0.000003)"/>
<path style="fill:none;stroke-width:1.92;stroke-linecap:round;stroke-linejoin:round;stroke:rgb(0%,0%,0%);stroke-opacity:1;stroke-miterlimit:10;" d="M 721.28125 598.239579 L 711.520833 607.999996 " transform="matrix(0.75,0,0,0.75,0,0.000003)"/>
<path style="fill:none;stroke-width:1.92;stroke-linecap:round;stroke-linejoin:round;stroke:rgb(0%,0%,0%);stroke-opacity:1;stroke-miterlimit:10;" d="M 697.760417 598.239579 L 687.838542 607.999996 " transform="matrix(0.75,0,0,0.75,0,0.000003)"/>
<path style="fill:none;stroke-width:1.92;stroke-linecap:round;stroke-linejoin:round;stroke:rgb(0%,0%,0%);stroke-opacity:1;stroke-miterlimit:10;" d="M 674.078125 598.239579 L 664.317708 607.999996 " transform="matrix(0.75,0,0,0.75,0,0.000003)"/>
<path style="fill:none;stroke-width:1.92;stroke-linecap:round;stroke-linejoin:round;stroke:rgb(0%,0%,0%);stroke-opacity:1;stroke-miterlimit:10;" d="M 650.401042 598.239579 L 640.640625 607.999996 " transform="matrix(0.75,0,0,0.75,0,0.000003)"/>
<path style="fill:none;stroke-width:1.92;stroke-linecap:round;stroke-linejoin:round;stroke:rgb(0%,0%,0%);stroke-opacity:1;stroke-miterlimit:10;" d="M 626.71875 598.239579 L 616.958333 607.999996 " transform="matrix(0.75,0,0,0.75,0,0.000003)"/>
<path style="fill:none;stroke-width:1.92;stroke-linecap:round;stroke-linejoin:round;stroke:rgb(0%,0%,0%);stroke-opacity:1;stroke-miterlimit:10;" d="M 603.041667 598.239579 L 593.28125 607.999996 " transform="matrix(0.75,0,0,0.75,0,0.000003)"/>
<path style="fill:none;stroke-width:1.92;stroke-linecap:round;stroke-linejoin:round;stroke:rgb(0%,0%,0%);stroke-opacity:1;stroke-miterlimit:10;" d="M 579.520833 598.239579 L 569.598958 607.999996 " transform="matrix(0.75,0,0,0.75,0,0.000003)"/>
<path style="fill:none;stroke-width:1.92;stroke-linecap:round;stroke-linejoin:round;stroke:rgb(0%,0%,0%);stroke-opacity:1;stroke-miterlimit:10;" d="M 555.838542 598.239579 L 546.078125 607.999996 " transform="matrix(0.75,0,0,0.75,0,0.000003)"/>
<path style="fill:none;stroke-width:1.92;stroke-linecap:round;stroke-linejoin:round;stroke:rgb(0%,0%,0%);stroke-opacity:1;stroke-miterlimit:10;" d="M 532.161458 598.239579 L 522.401042 607.999996 " transform="matrix(0.75,0,0,0.75,0,0.000003)"/>
<path style="fill:none;stroke-width:1.92;stroke-linecap:round;stroke-linejoin:round;stroke:rgb(0%,0%,0%);stroke-opacity:1;stroke-miterlimit:10;" d="M 508.479167 598.239579 L 498.71875 607.999996 " transform="matrix(0.75,0,0,0.75,0,0.000003)"/>
<path style="fill:none;stroke-width:1.92;stroke-linecap:round;stroke-linejoin:round;stroke:rgb(0%,0%,0%);stroke-opacity:1;stroke-miterlimit:10;" d="M 484.802083 598.239579 L 475.041667 607.999996 " transform="matrix(0.75,0,0,0.75,0,0.000003)"/>
<path style="fill:none;stroke-width:1.92;stroke-linecap:round;stroke-linejoin:round;stroke:rgb(0%,0%,0%);stroke-opacity:1;stroke-miterlimit:10;" d="M 461.28125 598.239579 L 451.520833 607.999996 " transform="matrix(0.75,0,0,0.75,0,0.000003)"/>
<path style="fill:none;stroke-width:1.92;stroke-linecap:round;stroke-linejoin:round;stroke:rgb(0%,0%,0%);stroke-opacity:1;stroke-miterlimit:10;" d="M 437.598958 598.239579 L 427.838542 607.999996 " transform="matrix(0.75,0,0,0.75,0,0.000003)"/>
<path style="fill:none;stroke-width:1.92;stroke-linecap:round;stroke-linejoin:round;stroke:rgb(0%,0%,0%);stroke-opacity:1;stroke-miterlimit:10;" d="M 413.921875 598.239579 L 404.161458 607.999996 " transform="matrix(0.75,0,0,0.75,0,0.000003)"/>
<path style="fill:none;stroke-width:1.92;stroke-linecap:round;stroke-linejoin:round;stroke:rgb(0%,0%,0%);stroke-opacity:1;stroke-miterlimit:10;" d="M 390.239583 598.239579 L 380.479167 607.999996 " transform="matrix(0.75,0,0,0.75,0,0.000003)"/>
<path style="fill:none;stroke-width:1.92;stroke-linecap:round;stroke-linejoin:round;stroke:rgb(0%,0%,0%);stroke-opacity:1;stroke-miterlimit:10;" d="M 366.71875 598.239579 L 356.958333 607.999996 " transform="matrix(0.75,0,0,0.75,0,0.000003)"/>
<path style="fill:none;stroke-width:1.92;stroke-linecap:round;stroke-linejoin:round;stroke:rgb(0%,0%,0%);stroke-opacity:1;stroke-miterlimit:10;" d="M 343.041667 598.239579 L 333.119792 607.999996 " transform="matrix(0.75,0,0,0.75,0,0.000003)"/>
<path style="fill:none;stroke-width:1.92;stroke-linecap:round;stroke-linejoin:round;stroke:rgb(0%,0%,0%);stroke-opacity:1;stroke-miterlimit:10;" d="M 319.359375 598.239579 L 309.598958 607.999996 " transform="matrix(0.75,0,0,0.75,0,0.000003)"/>
<path style="fill:none;stroke-width:1.92;stroke-linecap:round;stroke-linejoin:round;stroke:rgb(0%,0%,0%);stroke-opacity:1;stroke-miterlimit:10;" d="M 295.682292 598.239579 L 285.921875 607.999996 " transform="matrix(0.75,0,0,0.75,0,0.000003)"/>
<path style="fill:none;stroke-width:1.92;stroke-linecap:round;stroke-linejoin:round;stroke:rgb(0%,0%,0%);stroke-opacity:1;stroke-miterlimit:10;" d="M 272 598.239579 L 262.239583 607.999996 " transform="matrix(0.75,0,0,0.75,0,0.000003)"/>
<path style="fill:none;stroke-width:1.92;stroke-linecap:round;stroke-linejoin:round;stroke:rgb(0%,0%,0%);stroke-opacity:1;stroke-miterlimit:10;" d="M 248.479167 598.239579 L 238.5625 607.999996 " transform="matrix(0.75,0,0,0.75,0,0.000003)"/>
<path style="fill:none;stroke-width:1.92;stroke-linecap:round;stroke-linejoin:round;stroke:rgb(0%,0%,0%);stroke-opacity:1;stroke-miterlimit:10;" d="M 224.802083 598.239579 L 215.041667 607.999996 " transform="matrix(0.75,0,0,0.75,0,0.000003)"/>
<path style="fill:none;stroke-width:1.92;stroke-linecap:round;stroke-linejoin:round;stroke:rgb(0%,0%,0%);stroke-opacity:1;stroke-miterlimit:10;" d="M 201.119792 598.239579 L 191.359375 607.999996 " transform="matrix(0.75,0,0,0.75,0,0.000003)"/>
<path style="fill:none;stroke-width:1.92;stroke-linecap:round;stroke-linejoin:round;stroke:rgb(0%,0%,0%);stroke-opacity:1;stroke-miterlimit:10;" d="M 177.4375 598.239579 L 167.682292 607.999996 " transform="matrix(0.75,0,0,0.75,0,0.000003)"/>
<path style="fill:none;stroke-width:1.92;stroke-linecap:round;stroke-linejoin:round;stroke:rgb(0%,0%,0%);stroke-opacity:1;stroke-miterlimit:10;" d="M 153.921875 598.239579 L 144 607.999996 " transform="matrix(0.75,0,0,0.75,0,0.000003)"/>
<path style="fill:none;stroke-width:1.92;stroke-linecap:round;stroke-linejoin:round;stroke:rgb(0%,0%,0%);stroke-opacity:1;stroke-miterlimit:10;" d="M 130.239583 598.239579 L 120.479167 607.999996 " transform="matrix(0.75,0,0,0.75,0,0.000003)"/>
<path style="fill:none;stroke-width:1.92;stroke-linecap:round;stroke-linejoin:round;stroke:rgb(0%,0%,0%);stroke-opacity:1;stroke-miterlimit:10;" d="M 0.000203333 -0.000848333 L -2.562297 1.280402 L -5.119588 3.837693 L -7.682088 8.957485 L -8.95813 12.801235 L -10.23938 18.082485 L -11.52063 25.759568 L -12.80188 35.999152 " transform="matrix(0.75,0,0,0.75,236.160004,276.360011)"/>
<path style="fill:none;stroke-width:1.92;stroke-linecap:round;stroke-linejoin:round;stroke:rgb(0%,0%,0%);stroke-opacity:1;stroke-miterlimit:10;" d="M 0.000203333 -0.000848333 L 2.557495 -0.000848333 L 5.119995 2.561652 L 5.119995 6.400193 L 3.838745 8.957485 L 2.557495 10.238735 L 0.000203333 11.519985 L -3.838338 11.519985 L -1.281047 12.801235 L 1.281453 15.519985 L 2.557495 18.082485 L 2.557495 21.759568 L 1.281453 24.322068 L 0.000203333 25.759568 L -2.562297 26.87936 L -5.119588 26.87936 L -7.682088 25.759568 L -8.95813 24.322068 L -10.23938 20.639777 " transform="matrix(0.75,0,0,0.75,236.160004,276.360011)"/>
<path style="fill:none;stroke-width:1.92;stroke-linecap:round;stroke-linejoin:round;stroke:rgb(0%,0%,0%);stroke-opacity:1;stroke-miterlimit:10;" d="M 0.000406667 -0.002506 L -2.562093 1.122494 L -5.119385 3.841244 L -6.400635 6.398536 L -7.681885 10.242286 L -7.681885 14.080827 L -6.400635 16.638119 L -3.838135 17.919369 L -1.280843 17.919369 L 1.281657 16.638119 L 5.120198 12.799577 L 7.67749 8.961036 L 10.23999 3.841244 L 11.52124 -0.002506 " transform="matrix(0.75,0,0,0.75,232.320008,481.080005)"/>
<path style="fill:none;stroke-width:1.92;stroke-linecap:round;stroke-linejoin:round;stroke:rgb(0%,0%,0%);stroke-opacity:1;stroke-miterlimit:10;" d="M 0.000406667 -0.002506 L 2.557698 -0.002506 L 3.838948 1.122494 L 5.120198 3.841244 L 7.67749 14.080827 L 8.95874 16.638119 L 10.23999 17.919369 L 11.52124 17.919369 " transform="matrix(0.75,0,0,0.75,232.320008,481.080005)"/>
<path style="fill:none;stroke-width:1.92;stroke-linecap:round;stroke-linejoin:round;stroke:rgb(0%,0%,0%);stroke-opacity:1;stroke-miterlimit:10;" d="M 992.802083 593.437496 L 995.359375 589.598954 L 997.921875 588.317704 L 1001.760417 588.317704 L 1003.041667 590.880204 L 1003.041667 594.718746 " transform="matrix(0.75,0,0,0.75,0,0.000003)"/>
<path style="fill:none;stroke-width:1.92;stroke-linecap:round;stroke-linejoin:round;stroke:rgb(0%,0%,0%);stroke-opacity:1;stroke-miterlimit:10;" d="M -0.000813333 -0.00230267 L 1.280437 2.560197 L 1.280437 6.398739 L -0.000813333 11.518531 L -1.438313 14.081031 L -4.000813 16.638322 L -6.558105 18.081031 L -7.677897 18.081031 L -9.120605 16.638322 L -9.120605 15.518531 L -7.677897 14.081031 L -6.558105 15.518531 L -7.677897 16.638322 " transform="matrix(0.75,0,0,0.75,750.359985,441.240008)"/>
<path style="fill:none;stroke-width:1.92;stroke-linecap:round;stroke-linejoin:round;stroke:rgb(0%,0%,0%);stroke-opacity:1;stroke-miterlimit:10;" d="M 1000.479167 599.838538 L 1000.479167 603.838538 L 1001.760417 606.401038 L 1005.598958 606.401038 L 1008.161458 604.958329 L 1010.71875 601.281246 " transform="matrix(0.75,0,0,0.75,0,0.000003)"/>
<path style="fill:none;stroke-width:1.92;stroke-linecap:round;stroke-linejoin:round;stroke:rgb(0%,0%,0%);stroke-opacity:1;stroke-miterlimit:10;" d="M -0.001221 -0.00102167 L -1.282471 1.280228 L -0.001221 2.561478 L 1.280029 1.280228 L 1.280029 -0.00102167 L -0.001221 -1.282272 L -1.282471 -1.282272 L -3.839763 -0.00102167 L -6.402263 2.561478 L -7.678304 5.11877 L -8.959554 10.238562 L -8.959554 14.238562 L -7.678304 16.801062 " transform="matrix(0.75,0,0,0.75,758.039978,442.199985)"/>
<path style="fill:none;stroke-width:1.92;stroke-linecap:round;stroke-linejoin:round;stroke:rgb(0%,0%,0%);stroke-opacity:1;stroke-miterlimit:10;" d="M 660.802083 644.958329 L 662.880208 641.921871 L 664.958333 640.958329 L 668 640.958329 L 668.958333 643.041663 L 668.958333 646.078121 " transform="matrix(0.75,0,0,0.75,0,0.000003)"/>
<path style="fill:none;stroke-width:1.92;stroke-linecap:round;stroke-linejoin:round;stroke:rgb(0%,0%,0%);stroke-opacity:1;stroke-miterlimit:10;" d="M 0.00168867 -0.00169267 L 0.960022 2.081641 L 0.960022 5.118099 L 0.00168867 9.118099 L -1.118103 11.201432 L -3.201436 13.279557 L -5.118103 14.237891 L -6.237895 14.237891 L -7.201436 13.279557 L -7.201436 12.321224 L -6.237895 11.201432 " transform="matrix(0.75,0,0,0.75,500.279984,480.720019)"/>
<path style="fill:none;stroke-width:1.92;stroke-linecap:round;stroke-linejoin:round;stroke:rgb(0%,0%,0%);stroke-opacity:1;stroke-miterlimit:10;" d="M 660.802083 652.161454 L 661.921875 653.281246 L 660.802083 654.239579 " transform="matrix(0.75,0,0,0.75,0,0.000003)"/>
<path style="fill:none;stroke-width:1.92;stroke-linecap:round;stroke-linejoin:round;stroke:rgb(0%,0%,0%);stroke-opacity:1;stroke-miterlimit:10;" d="M 667.041667 650.078121 L 667.041667 653.281246 L 668 655.197913 L 671.197917 655.197913 L 673.119792 654.239579 L 675.197917 651.197913 " transform="matrix(0.75,0,0,0.75,0,0.000003)"/>
<path style="fill:none;stroke-width:1.92;stroke-linecap:round;stroke-linejoin:round;stroke:rgb(0%,0%,0%);stroke-opacity:1;stroke-miterlimit:10;" d="M -0.00209533 0.001888 L -1.121887 1.12168 L -0.00209533 2.080013 L 1.117696 1.12168 L 1.117696 0.001888 L -0.00209533 -0.961654 L -1.121887 -0.961654 L -3.038554 0.001888 L -5.121887 2.080013 L -6.241679 4.158138 L -7.200012 8.158138 L -7.200012 11.361263 L -6.241679 13.27793 " transform="matrix(0.75,0,0,0.75,506.400009,481.43999)"/>
<path style="fill:none;stroke-width:1.92;stroke-linecap:round;stroke-linejoin:round;stroke:rgb(0%,0%,0%);stroke-opacity:1;stroke-miterlimit:10;" d="M 684.479167 651.520829 L 679.838542 667.682288 " transform="matrix(0.75,0,0,0.75,0,0.000003)"/>
<path style="fill:none;stroke-width:1.92;stroke-linecap:round;stroke-linejoin:round;stroke:rgb(0%,0%,0%);stroke-opacity:1;stroke-miterlimit:10;" d="M 685.28125 651.520829 L 680.640625 667.682288 " transform="matrix(0.75,0,0,0.75,0,0.000003)"/>
<path style="fill:none;stroke-width:1.92;stroke-linecap:round;stroke-linejoin:round;stroke:rgb(0%,0%,0%);stroke-opacity:1;stroke-miterlimit:10;" d="M -0.001221 -0.00102167 L -0.798096 0.801062 L -0.001221 1.597937 L 0.639404 0.801062 L 0.639404 -0.00102167 L -0.001221 -0.797897 L -0.798096 -0.797897 L -2.402263 -0.00102167 L -5.438721 3.040645 L -7.037679 3.83752 L -8.480388 3.83752 " transform="matrix(0.75,0,0,0.75,518.039978,493.199985)"/>
<path style="fill:none;stroke-width:1.92;stroke-linecap:round;stroke-linejoin:round;stroke:rgb(0%,0%,0%);stroke-opacity:1;stroke-miterlimit:10;" d="M 683.682292 661.437496 L 685.28125 662.239579 L 686.880208 666.880204 L 687.682292 667.682288 " transform="matrix(0.75,0,0,0.75,0,0.000003)"/>
<path style="fill:none;stroke-width:1.92;stroke-linecap:round;stroke-linejoin:round;stroke:rgb(0%,0%,0%);stroke-opacity:1;stroke-miterlimit:10;" d="M 683.682292 661.437496 L 684.479167 662.239579 L 686.078125 666.880204 L 686.880208 667.682288 L 688.317708 667.682288 L 689.921875 666.880204 L 691.359375 664.479163 " transform="matrix(0.75,0,0,0.75,0,0.000003)"/>
<path style="fill:none;stroke-width:1.92;stroke-linecap:round;stroke-linejoin:round;stroke:rgb(0%,0%,0%);stroke-opacity:1;stroke-miterlimit:10;" d="M 682.239583 651.520829 L 685.28125 651.520829 " transform="matrix(0.75,0,0,0.75,0,0.000003)"/>
<path style="fill:none;stroke-width:1.92;stroke-linecap:round;stroke-linejoin:round;stroke:rgb(0%,0%,0%);stroke-opacity:1;stroke-miterlimit:10;" d="M 240.161458 127.999996 L 240.161458 146.880204 L 250.880208 146.880204 " transform="matrix(0.75,0,0,0.75,0,0.000003)"/>
<path style="fill:none;stroke-width:1.92;stroke-linecap:round;stroke-linejoin:round;stroke:rgb(0%,0%,0%);stroke-opacity:1;stroke-miterlimit:10;" d="M 254.5625 127.999996 L 255.359375 128.958329 L 256.317708 127.999996 L 255.359375 127.041663 L 254.5625 127.999996 " transform="matrix(0.75,0,0,0.75,0,0.000003)"/>
<path style="fill:none;stroke-width:1.92;stroke-linecap:round;stroke-linejoin:round;stroke:rgb(0%,0%,0%);stroke-opacity:1;stroke-miterlimit:10;" d="M 255.359375 134.401038 L 255.359375 146.880204 " transform="matrix(0.75,0,0,0.75,0,0.000003)"/>
<path style="fill:none;stroke-width:1.92;stroke-linecap:round;stroke-linejoin:round;stroke:rgb(0%,0%,0%);stroke-opacity:1;stroke-miterlimit:10;" d="M 272.479167 134.401038 L 272.479167 148.802079 L 271.682292 151.359371 L 270.71875 152.317704 L 268.958333 153.119788 L 266.239583 153.119788 L 264.479167 152.317704 " transform="matrix(0.75,0,0,0.75,0,0.000003)"/>
<path style="fill:none;stroke-width:1.92;stroke-linecap:round;stroke-linejoin:round;stroke:rgb(0%,0%,0%);stroke-opacity:1;stroke-miterlimit:10;" d="M -0.000844333 -0.00167767 L -1.761261 -1.762094 L -3.521678 -2.558969 L -6.240428 -2.558969 L -8.000844 -1.762094 L -9.917511 -0.00167767 L -10.719594 2.722281 L -10.719594 4.477489 L -9.917511 7.357697 L -8.000844 9.118114 L -6.240428 9.920197 L -3.521678 9.920197 L -1.761261 9.118114 L -0.000844333 7.357697 " transform="matrix(0.75,0,0,0.75,204.360008,102.720008)"/>
<path style="fill:none;stroke-width:1.92;stroke-linecap:round;stroke-linejoin:round;stroke:rgb(0%,0%,0%);stroke-opacity:1;stroke-miterlimit:10;" d="M 279.838542 127.999996 L 279.838542 146.880204 " transform="matrix(0.75,0,0,0.75,0,0.000003)"/>
<path style="fill:none;stroke-width:1.92;stroke-linecap:round;stroke-linejoin:round;stroke:rgb(0%,0%,0%);stroke-opacity:1;stroke-miterlimit:10;" d="M 279.838542 137.921871 L 282.401042 135.197913 L 284.317708 134.401038 L 286.880208 134.401038 L 288.640625 135.197913 L 289.598958 137.921871 L 289.598958 146.880204 " transform="matrix(0.75,0,0,0.75,0,0.000003)"/>
<path style="fill:none;stroke-width:1.92;stroke-linecap:round;stroke-linejoin:round;stroke:rgb(0%,0%,0%);stroke-opacity:1;stroke-miterlimit:10;" d="M 297.760417 127.999996 L 297.760417 143.359371 L 298.5625 146.078121 L 300.479167 146.880204 L 302.239583 146.880204 " transform="matrix(0.75,0,0,0.75,0,0.000003)"/>
<path style="fill:none;stroke-width:1.92;stroke-linecap:round;stroke-linejoin:round;stroke:rgb(0%,0%,0%);stroke-opacity:1;stroke-miterlimit:10;" d="M 295.041667 134.401038 L 301.28125 134.401038 " transform="matrix(0.75,0,0,0.75,0,0.000003)"/>
<path style="fill:none;stroke-width:1.92;stroke-linecap:round;stroke-linejoin:round;stroke:rgb(0%,0%,0%);stroke-opacity:1;stroke-miterlimit:10;" d="M 307.682292 127.999996 L 307.682292 146.880204 " transform="matrix(0.75,0,0,0.75,0,0.000003)"/>
<path style="fill:none;stroke-width:1.92;stroke-linecap:round;stroke-linejoin:round;stroke:rgb(0%,0%,0%);stroke-opacity:1;stroke-miterlimit:10;" d="M 307.682292 137.921871 L 310.401042 135.197913 L 312.161458 134.401038 L 314.880208 134.401038 L 316.640625 135.197913 L 317.598958 137.921871 L 317.598958 146.880204 " transform="matrix(0.75,0,0,0.75,0,0.000003)"/>
<path style="fill:none;stroke-width:1.92;stroke-linecap:round;stroke-linejoin:round;stroke:rgb(0%,0%,0%);stroke-opacity:1;stroke-miterlimit:10;" d="M -0.00229867 0.00104367 L -1.757507 0.797919 L -3.679382 2.558335 L -4.481465 5.282294 L -4.481465 7.037502 L -3.679382 9.91771 L -1.757507 11.678127 L -0.00229867 12.48021 L 2.72166 12.48021 L 4.482076 11.678127 L 6.242493 9.91771 L 7.200826 7.037502 L 7.200826 5.282294 L 6.242493 2.558335 L 4.482076 0.797919 L 2.72166 0.00104367 L -0.00229867 0.00104367 " transform="matrix(0.75,0,0,0.75,246.240005,100.799999)"/>
<path style="fill:none;stroke-width:1.92;stroke-linecap:round;stroke-linejoin:round;stroke:rgb(0%,0%,0%);stroke-opacity:1;stroke-miterlimit:10;" d="M 341.921875 134.401038 L 341.921875 143.359371 L 342.71875 146.078121 L 344.479167 146.880204 L 347.197917 146.880204 L 348.958333 146.078121 L 351.838542 143.359371 " transform="matrix(0.75,0,0,0.75,0,0.000003)"/>
<path style="fill:none;stroke-width:1.92;stroke-linecap:round;stroke-linejoin:round;stroke:rgb(0%,0%,0%);stroke-opacity:1;stroke-miterlimit:10;" d="M 351.838542 134.401038 L 351.838542 146.880204 " transform="matrix(0.75,0,0,0.75,0,0.000003)"/>
<path style="fill:none;stroke-width:1.92;stroke-linecap:round;stroke-linejoin:round;stroke:rgb(0%,0%,0%);stroke-opacity:1;stroke-miterlimit:10;" d="M -0.000000000000056843 -0.00167767 L -0.958333 -1.762094 L -3.682292 -2.558969 L -6.239583 -2.558969 L -9.119792 -1.762094 L -9.921875 -0.00167767 L -9.119792 1.920197 L -7.359375 2.722281 L -2.71875 3.680614 L -0.958333 4.477489 L -0.000000000000056843 6.399364 L -0.000000000000056843 7.357697 L -0.958333 9.118114 L -3.682292 9.920197 L -6.239583 9.920197 L -9.119792 9.118114 L -9.921875 7.357697 " transform="matrix(0.75,0,0,0.75,276,102.720008)"/>
<path style="fill:none;stroke-width:1.92;stroke-linecap:round;stroke-linejoin:round;stroke:rgb(0%,0%,0%);stroke-opacity:1;stroke-miterlimit:10;" d="M -0.002502 0.00229467 L 10.721456 0.00229467 L 10.721456 -1.758122 L 9.757915 -3.518539 L 8.96104 -4.48208 L 7.039165 -5.278955 L 4.481873 -5.278955 L 2.559998 -4.48208 L 0.799581 -2.721664 L -0.002502 0.00229467 L -0.002502 1.757503 L 0.799581 4.637711 L 2.559998 6.398128 L 4.481873 7.200211 L 7.039165 7.200211 L 8.96104 6.398128 L 10.721456 4.637711 " transform="matrix(0.75,0,0,0.75,280.080002,104.759998)"/>
<path style="fill:none;stroke-width:1.92;stroke-linecap:round;stroke-linejoin:round;stroke:rgb(0%,0%,0%);stroke-opacity:1;stroke-miterlimit:10;" d="M 150.401042 553.437496 L 148.479167 551.520829 L 145.760417 550.718746 " transform="matrix(0.75,0,0,0.75,0,0.000003)"/>
<path style="fill:none;stroke-width:1.92;stroke-linecap:round;stroke-linejoin:round;stroke:rgb(0%,0%,0%);stroke-opacity:1;stroke-miterlimit:10;" d="M 0.000421667 -0.001225 L -3.520412 -0.001225 L -6.239162 0.800858 L -7.999578 2.717525 L -7.999578 4.477942 L -7.197495 6.399817 L -6.239162 7.2019 L -4.478745 8.160233 L 0.958755 9.92065 L 2.719172 10.717525 L 3.521255 11.681067 L 4.641047 13.441483 L 4.641047 16.160233 L 2.719172 18.082108 L 0.000421667 18.878983 L -3.520412 18.878983 L -6.239162 18.082108 L -7.999578 16.160233 " transform="matrix(0.75,0,0,0.75,109.319996,413.039981)"/>
<path style="fill:none;stroke-width:1.92;stroke-linecap:round;stroke-linejoin:round;stroke:rgb(0%,0%,0%);stroke-opacity:1;stroke-miterlimit:10;" d="M 0.00229867 0.00101367 L 10.882507 0.00101367 L 10.882507 -1.759403 L 9.918965 -3.51982 L 8.960632 -4.478153 L 7.200215 -5.280236 L 4.637715 -5.280236 L 2.721049 -4.478153 L 0.960632 -2.717736 L 0.00229867 0.00101367 L 0.00229867 1.76143 L 0.960632 4.48018 L 2.721049 6.402055 L 4.637715 7.19893 L 7.200215 7.19893 L 8.960632 6.402055 L 10.882507 4.48018 " transform="matrix(0.75,0,0,0.75,116.759995,421.800021)"/>
<path style="fill:none;stroke-width:1.92;stroke-linecap:round;stroke-linejoin:round;stroke:rgb(0%,0%,0%);stroke-opacity:1;stroke-miterlimit:10;" d="M 182.71875 557.119788 L 182.71875 569.598954 " transform="matrix(0.75,0,0,0.75,0,0.000003)"/>
<path style="fill:none;stroke-width:1.92;stroke-linecap:round;stroke-linejoin:round;stroke:rgb(0%,0%,0%);stroke-opacity:1;stroke-miterlimit:10;" d="M -0.001251 0.00229467 L -1.761668 -1.758122 L -3.678334 -2.560205 L -6.240834 -2.560205 L -8.157501 -1.758122 L -9.917918 0.00229467 L -10.881459 2.721045 L -10.881459 4.481461 L -9.917918 7.200211 L -8.157501 9.122086 L -6.240834 9.918961 L -3.678334 9.918961 L -1.761668 9.122086 L -0.001251 7.200211 " transform="matrix(0.75,0,0,0.75,137.040001,419.759998)"/>
<path style="fill:none;stroke-width:1.92;stroke-linecap:round;stroke-linejoin:round;stroke:rgb(0%,0%,0%);stroke-opacity:1;stroke-miterlimit:10;" d="M 135.838542 626.880204 L 134.078125 624.958329 L 131.359375 624.161454 " transform="matrix(0.75,0,0,0.75,0,0.000003)"/>
<path style="fill:none;stroke-width:1.92;stroke-linecap:round;stroke-linejoin:round;stroke:rgb(0%,0%,0%);stroke-opacity:1;stroke-miterlimit:10;" d="M -0.000626 0.00148133 L -3.521459 0.00148133 L -6.240209 0.798356 L -8.162084 2.720231 L -8.162084 4.480648 L -7.198543 6.402523 L -6.240209 7.199398 L -4.479793 8.157731 L 0.957707 9.918148 L 2.718124 10.720231 L 3.681666 11.678565 L 4.478541 13.438981 L 4.478541 16.157731 L 2.718124 18.079606 L -0.000626 18.88169 L -3.521459 18.88169 L -6.240209 18.079606 " transform="matrix(0.75,0,0,0.75,98.520001,468.119983)"/>
<path style="fill:none;stroke-width:1.92;stroke-linecap:round;stroke-linejoin:round;stroke:rgb(0%,0%,0%);stroke-opacity:1;stroke-miterlimit:10;" d="M 125.119792 642.239579 L 123.197917 640.317704 " transform="matrix(0.75,0,0,0.75,0,0.000003)"/>
<path style="fill:none;stroke-width:1.92;stroke-linecap:round;stroke-linejoin:round;stroke:rgb(0%,0%,0%);stroke-opacity:1;stroke-miterlimit:10;" d="M 142.239583 624.161454 L 142.239583 643.041663 " transform="matrix(0.75,0,0,0.75,0,0.000003)"/>
<path style="fill:none;stroke-width:1.92;stroke-linecap:round;stroke-linejoin:round;stroke:rgb(0%,0%,0%);stroke-opacity:1;stroke-miterlimit:10;" d="M 142.239583 634.078121 L 144.958333 631.359371 L 146.71875 630.562496 L 149.28125 630.562496 L 151.197917 631.359371 L 152.161458 634.078121 L 152.161458 643.041663 " transform="matrix(0.75,0,0,0.75,0,0.000003)"/>
<path style="fill:none;stroke-width:1.92;stroke-linecap:round;stroke-linejoin:round;stroke:rgb(0%,0%,0%);stroke-opacity:1;stroke-miterlimit:10;" d="M 0.000203333 0.002498 L -1.760213 0.799373 L -3.682088 2.55979 L -4.478963 5.27854 L -4.478963 7.038956 L -3.682088 9.757706 L -1.760213 11.679581 L 0.000203333 12.481665 L 2.718953 12.481665 L 4.47937 11.679581 L 6.239787 9.757706 L 7.19812 7.038956 L 7.19812 5.27854 L 6.239787 2.55979 L 4.47937 0.799373 L 2.718953 0.002498 L 0.000203333 0.002498 " transform="matrix(0.75,0,0,0.75,122.160004,472.920002)"/>
<path style="fill:none;stroke-width:1.92;stroke-linecap:round;stroke-linejoin:round;stroke:rgb(0%,0%,0%);stroke-opacity:1;stroke-miterlimit:10;" d="M 176.479167 630.562496 L 176.479167 643.041663 " transform="matrix(0.75,0,0,0.75,0,0.000003)"/>
<path style="fill:none;stroke-width:1.92;stroke-linecap:round;stroke-linejoin:round;stroke:rgb(0%,0%,0%);stroke-opacity:1;stroke-miterlimit:10;" d="M 176.479167 635.838538 L 177.28125 633.119788 L 179.041667 631.359371 L 180.958333 630.562496 L 183.520833 630.562496 " transform="matrix(0.75,0,0,0.75,0,0.000003)"/>
<path style="fill:none;stroke-width:1.92;stroke-linecap:round;stroke-linejoin:round;stroke:rgb(0%,0%,0%);stroke-opacity:1;stroke-miterlimit:10;" d="M -0.00208033 -0.00148933 L 10.878128 -0.00148933 L 10.878128 -1.761906 L 9.919795 -3.522323 L 9.117711 -4.480656 L 7.201045 -5.277531 L 4.482295 -5.277531 L 2.721878 -4.480656 L 0.961461 -2.720239 L -0.00208033 -0.00148933 L -0.00208033 1.758927 L 0.961461 4.477677 L 2.721878 6.399552 L 4.482295 7.201636 L 7.201045 7.201636 L 9.117711 6.399552 L 10.878128 4.477677 " transform="matrix(0.75,0,0,0.75,140.399998,476.880023)"/>
<path style="fill:none;stroke-width:3.68;stroke-linecap:round;stroke-linejoin:round;stroke:rgb(0%,0%,0%);stroke-opacity:1;stroke-miterlimit:10;" d="M 311.682292 598.239579 L 311.682292 622.562496 " transform="matrix(0.75,0,0,0.75,0,0.000003)"/>
<path style="fill:none;stroke-width:3.68;stroke-linecap:round;stroke-linejoin:round;stroke:rgb(0%,0%,0%);stroke-opacity:1;stroke-miterlimit:10;" d="M 669.28125 598.239579 L 669.28125 622.562496 " transform="matrix(0.75,0,0,0.75,0,0.000003)"/>
<path style="fill:none;stroke-width:0.96;stroke-linecap:round;stroke-linejoin:round;stroke:rgb(0%,0%,0%);stroke-opacity:1;stroke-miterlimit:10;" d="M 0.00229867 -0.000614 L 5.12209 -0.000614 L 6.882507 -0.162072 L 8.481465 -0.318322 L 12.002299 -0.641239 L 13.601257 -0.958947 L 15.361674 -1.120406 L 16.960632 -1.438114 L 18.721049 -1.761031 L 20.320007 -2.078739 L 22.080424 -2.557906 L 23.679382 -2.880822 L 25.27834 -3.359989 L 26.882507 -4.000614 L 28.637715 -4.479781 L 30.241882 -4.958947 L 31.84084 -5.438114 L 35.038757 -6.719364 L 36.481465 -7.521447 L 38.080424 -8.162072 " transform="matrix(0.75,0,0,0.75,233.759995,200.519992)"/>
<path style="fill:none;stroke-width:0.96;stroke-linecap:round;stroke-linejoin:round;stroke:rgb(0%,0%,0%);stroke-opacity:1;stroke-miterlimit:10;" d="M 349.760417 259.197913 L 351.359375 258.401038 L 352.958333 257.760413 " transform="matrix(0.75,0,0,0.75,0,0.000003)"/>
<path style="fill:none;stroke-width:0.96;stroke-linecap:round;stroke-linejoin:round;stroke:rgb(0%,0%,0%);stroke-opacity:1;stroke-miterlimit:10;" d="M -0.00165767 0.000402667 L 1.602509 -0.801681 L 3.040009 -1.598556 L 4.638967 -2.400639 L 5.920217 -3.197514 L 7.519176 -4.161056 L 8.961884 -4.957931 L 10.399384 -6.077722 L 11.842092 -7.041264 L 13.279592 -7.999597 L 14.560842 -8.957931 L 15.998342 -9.921472 L 18.560842 -12.161056 L 19.998342 -13.280847 " transform="matrix(0.75,0,0,0.75,264.719993,193.320011)"/>
<path style="fill:none;stroke-width:1.92;stroke-linecap:round;stroke-linejoin:round;stroke:rgb(0%,0%,0%);stroke-opacity:1;stroke-miterlimit:10;" d="M 0.000406667 0.00166967 L -1.76001 0.960003 L -3.681885 3.840211 L -4.640218 5.762086 L -5.598552 8.642295 L -6.400635 13.277711 L -6.400635 17.121461 L -5.598552 18.881878 L -4.640218 19.840211 L -2.718343 19.840211 " transform="matrix(0.75,0,0,0.75,247.320008,164.279998)"/>
<path style="fill:none;stroke-width:1.92;stroke-linecap:round;stroke-linejoin:round;stroke:rgb(0%,0%,0%);stroke-opacity:1;stroke-miterlimit:10;" d="M 0.00165767 0.000199333 L 1.918324 -0.958134 L 3.840199 -3.838342 L 4.798533 -5.598759 L 5.600616 -8.478967 L 6.558949 -13.281051 L 6.558949 -16.958134 L 5.600616 -18.880009 L 4.798533 -19.838342 L 2.720408 -19.838342 " transform="matrix(0.75,0,0,0.75,245.280007,179.160007)"/>
<path style="fill:none;stroke-width:1.92;stroke-linecap:round;stroke-linejoin:round;stroke:rgb(0%,0%,0%);stroke-opacity:1;stroke-miterlimit:10;" d="M 324.161458 228.479163 L 332.640625 228.479163 " transform="matrix(0.75,0,0,0.75,0,0.000003)"/>
<path style="fill:none;stroke-width:1.92;stroke-linecap:round;stroke-linejoin:round;stroke:rgb(0%,0%,0%);stroke-opacity:1;stroke-miterlimit:10;" d="M 342.078125 235.359371 L 337.921875 250.239579 " transform="matrix(0.75,0,0,0.75,0,0.000003)"/>
<path style="fill:none;stroke-width:1.92;stroke-linecap:round;stroke-linejoin:round;stroke:rgb(0%,0%,0%);stroke-opacity:1;stroke-miterlimit:10;" d="M 342.880208 235.359371 L 338.5625 250.239579 " transform="matrix(0.75,0,0,0.75,0,0.000003)"/>
<path style="fill:none;stroke-width:1.92;stroke-linecap:round;stroke-linejoin:round;stroke:rgb(0%,0%,0%);stroke-opacity:1;stroke-miterlimit:10;" d="M -0.00145433 -0.000207333 L -0.798329 0.640418 L -0.00145433 1.281043 L 0.639171 0.640418 L 0.639171 -0.000207333 L -0.00145433 -0.802291 L -0.798329 -0.802291 L -2.241038 -0.000207333 L -4.959788 2.718543 L -6.402496 3.359168 L -7.839996 3.359168 " transform="matrix(0.75,0,0,0.75,260.879997,180.839999)"/>
<path style="fill:none;stroke-width:1.92;stroke-linecap:round;stroke-linejoin:round;stroke:rgb(0%,0%,0%);stroke-opacity:1;stroke-miterlimit:10;" d="M 341.4375 244.479163 L 342.880208 245.281246 L 344.317708 249.437496 L 344.958333 250.078121 " transform="matrix(0.75,0,0,0.75,0,0.000003)"/>
<path style="fill:none;stroke-width:1.92;stroke-linecap:round;stroke-linejoin:round;stroke:rgb(0%,0%,0%);stroke-opacity:1;stroke-miterlimit:10;" d="M 341.4375 244.479163 L 342.078125 245.281246 L 343.520833 249.437496 L 344.317708 250.078121 " transform="matrix(0.75,0,0,0.75,0,0.000003)"/>
<path style="fill:none;stroke-width:1.92;stroke-linecap:round;stroke-linejoin:round;stroke:rgb(0%,0%,0%);stroke-opacity:1;stroke-miterlimit:10;" d="M 344.317708 250.078121 L 345.598958 250.078121 L 347.041667 249.437496 L 348.479167 247.359371 " transform="matrix(0.75,0,0,0.75,0,0.000003)"/>
<path style="fill:none;stroke-width:1.92;stroke-linecap:round;stroke-linejoin:round;stroke:rgb(0%,0%,0%);stroke-opacity:1;stroke-miterlimit:10;" d="M 340 235.359371 L 342.880208 235.359371 " transform="matrix(0.75,0,0,0.75,0,0.000003)"/>
</g>
</svg>
